External Loads File
version=1
nRows=93
nColumns=13
Range=5.000000e-03-10 seconds
endheader
time 	forceRightX 	forceRightY 	forceRightZ 	pointRightX 	pointRightY 	pointRightZ 	forceLeftX 	forceLeftY 	forceLeftZ 	pointLeftX 	pointLeftY 	pointLeftZ 		
2.505000 198.337193 1270.205622 -0.000000 0.384410 0.209483 -0.147312 -77.852242 -114.128845 -0.000000 0.171095 0.433149 -0.379138
2.510000 205.753547 1279.653928 -0.000000 0.381124 0.205281 -0.147374 -81.959550 -113.724356 -0.000000 0.175129 0.437685 -0.379236
2.515000 214.145517 1286.786625 -0.000000 0.377723 0.200740 -0.147345 -85.781526 -112.822287 -0.000000 0.179394 0.442290 -0.379226
2.520000 219.828044 1292.394809 -0.000000 0.374186 0.196692 -0.147439 -88.976243 -111.597751 -0.000000 0.183675 0.446656 -0.379205
2.525000 225.253613 1296.205283 -0.000000 0.370531 0.192514 -0.147517 -91.759201 -109.861565 -0.000000 0.188061 0.451023 -0.379219
2.530000 229.394403 1298.398913 -0.000000 0.366724 0.188746 -0.147660 -94.058426 -107.687358 -0.000000 0.192641 0.455267 -0.379244
2.535000 228.996776 1299.432646 -0.000000 0.362817 0.185336 -0.147692 -95.620700 -105.366060 -0.000000 0.196539 0.459205 -0.378523
2.540000 232.425593 1297.591647 -0.000000 0.358680 0.181483 -0.148003 -97.136344 -102.404700 -0.000000 0.201286 0.463153 -0.378558
2.545000 234.029404 1293.478452 -0.000000 0.354599 0.178224 -0.148118 -98.183845 -99.394747 -0.000000 0.206146 0.466988 -0.378627
2.550000 235.180449 1286.199418 -0.000000 0.350506 0.175025 -0.148294 -98.946375 -96.421662 -0.000000 0.211133 0.470633 -0.378681
2.555000 236.210302 1274.790157 -0.000000 0.346272 0.171884 -0.148413 -99.528009 -93.596535 -0.000000 0.216144 0.474126 -0.378738
2.560000 243.951796 1256.938832 -0.000000 0.341911 0.168940 -0.148462 -100.493715 -90.445406 -0.000000 0.223141 0.477443 -0.379782
2.565000 242.509139 1234.758654 -0.000000 0.337519 0.166309 -0.148451 -100.745745 -88.274508 -0.000000 0.227831 0.480608 -0.379370
2.570000 240.896770 1205.869705 -0.000000 0.333035 0.163686 -0.148406 -100.973125 -86.416861 -0.000000 0.232555 0.483572 -0.378844
2.575000 241.108155 1169.440045 -0.000000 0.328402 0.161269 -0.148254 -101.354445 -84.687431 -0.000000 0.237792 0.486821 -0.378834
2.580000 240.996742 1125.650024 -0.000000 0.323624 0.159200 -0.148105 -101.776919 -83.154903 -0.000000 0.243245 0.489598 -0.378901
2.585000 239.197375 1074.730043 -0.000000 0.318871 0.157297 -0.147920 -102.142298 -81.714761 -0.000000 0.248623 0.492085 -0.378992
2.590000 236.073197 1016.770423 -0.000000 0.314071 0.155652 -0.147756 -102.421289 -79.975148 -0.000000 0.254069 0.494247 -0.379061
2.595000 231.030131 952.315374 -0.000000 0.309253 0.154304 -0.147556 -102.467022 -77.561974 -0.000000 0.259473 0.496252 -0.379062
2.600000 224.319736 882.039445 -0.000000 0.304415 0.153256 -0.147362 -102.172617 -74.015637 -0.000000 0.265024 0.497998 -0.379141
2.605000 216.078275 807.215486 -0.000000 0.299477 0.152294 -0.147176 -101.429618 -68.905277 -0.000000 0.270745 0.499607 -0.378897
2.610000 205.203366 730.127640 -0.000000 0.294595 0.151609 -0.146935 -100.043193 -62.004795 -0.000000 0.276244 0.500933 -0.378956
2.615000 193.164908 652.666148 -0.000000 0.289607 0.151051 -0.146720 -98.032851 -52.806381 -0.000000 0.281788 0.501573 -0.379033
2.620000 180.250210 576.865311 -0.000000 0.284600 0.150810 -0.146482 -95.281760 -40.976452 -0.000000 0.287310 0.502453 -0.379143
2.625000 167.028047 504.348789 -0.000000 0.279504 0.150760 -0.146268 -91.663106 -26.212864 -0.000000 0.292695 0.503003 -0.379294
2.630000 154.505005 436.246329 -0.000000 0.274193 0.151037 -0.146126 -87.058297 -8.221538 -0.000000 0.298071 0.503290 -0.379418
2.635000 143.025752 373.548583 -0.000000 0.268666 0.151509 -0.145940 -81.321177 13.085906 -0.000000 0.303297 0.503317 -0.379728
2.640000 132.975454 316.864387 -0.000000 0.263050 0.152190 -0.145756 -74.376444 37.671303 -0.000000 0.308420 0.503011 -0.380396
2.645000 124.803178 266.350428 -0.000000 0.257138 0.153185 -0.145684 -66.218488 65.366165 -0.000000 0.313422 0.502485 -0.380702
2.650000 118.761693 221.778832 -0.000000 0.250950 0.154574 -0.145630 -56.864305 95.841140 -0.000000 0.318548 0.501582 -0.381010
2.655000 114.405721 182.899982 -0.000000 0.244707 0.156119 -0.145600 -46.609206 128.485699 -0.000000 0.323479 0.500227 -0.381433
2.660000 111.733199 149.018899 -0.000000 0.238273 0.158140 -0.145663 -35.661187 162.752189 -0.000000 0.328318 0.498684 -0.381826
2.665000 110.438614 119.540712 -0.000000 0.231727 0.160457 -0.145799 -24.441267 198.075551 -0.000000 0.332934 0.496881 -0.382144
2.670000 110.457708 93.711826 -0.000000 0.225102 0.163069 -0.146017 -13.038240 234.059574 -0.000000 0.337754 0.494724 -0.382760
2.675000 111.413601 71.214972 -0.000000 0.218358 0.165988 -0.146205 -2.156496 270.375647 -0.000000 0.342127 0.492421 -0.383192
2.680000 113.259566 51.454328 -0.000000 0.211573 0.169121 -0.146402 8.391964 306.848041 -0.000000 0.346776 0.489729 -0.383529
2.685000 115.601569 34.421376 -0.000000 0.204819 0.172606 -0.146618 17.750500 343.330324 -0.000000 0.350912 0.486692 -0.383968
2.690000 118.154213 19.964711 -0.000000 0.198231 0.176301 -0.146795 25.859589 379.661798 -0.000000 0.354926 0.483299 -0.384381
2.695000 120.548472 8.073984 -0.000000 0.191886 0.180241 -0.146856 32.762336 415.652312 -0.000000 0.359008 0.479544 -0.384822
2.700000 122.416323 -1.073843 -0.000000 0.185874 0.184397 -0.146793 38.044688 451.126761 -0.000000 0.362979 0.475600 -0.385154
2.705000 123.467835 -7.476097 -0.000000 0.180235 0.188782 -0.146922 41.613440 485.840674 -0.000000 0.366789 0.471449 -0.385592
2.710000 123.472372 -11.519372 -0.000000 0.174984 0.193086 -0.147282 44.322167 519.429272 -0.000000 0.371318 0.467047 -0.385904
2.715000 122.354559 -13.340317 -0.000000 0.170186 0.197592 -0.147645 45.121301 551.673134 -0.000000 0.375362 0.462233 -0.386089
2.720000 120.160712 -13.627384 -0.000000 0.165726 0.202137 -0.147634 44.060843 582.255355 -0.000000 0.379327 0.457515 -0.386198
2.725000 117.011622 -13.408157 -0.000000 0.161498 0.206807 -0.147771 41.824724 610.846000 -0.000000 0.383270 0.452555 -0.386190
2.730000 113.054213 -13.676561 -0.000000 0.157437 0.211706 -0.147692 38.628995 637.230494 -0.000000 0.387140 0.447394 -0.386199
2.735000 108.402627 -15.242925 -0.000000 0.153703 0.216796 -0.147774 34.266460 661.347155 -0.000000 0.390954 0.442051 -0.386143
2.740000 103.096044 -18.810464 -0.000000 0.150230 0.222142 -0.147790 29.450036 683.248471 -0.000000 0.394764 0.436284 -0.386043
2.745000 97.213286 -24.377782 -0.000000 0.147170 0.227588 -0.148003 22.370338 703.225563 -0.000000 0.398448 0.430910 -0.386022
2.750000 90.691585 -32.313673 -0.000000 0.144238 0.233251 -0.148042 15.950810 721.452313 -0.000000 0.402072 0.424637 -0.386026
2.755000 83.680725 -41.965551 -0.000000 0.141557 0.239053 -0.148015 7.716251 738.269302 -0.000000 0.405652 0.418863 -0.385930
2.760000 76.118170 -53.148199 -0.000000 0.139047 0.245001 -0.147942 0.321484 753.839932 -0.000000 0.409027 0.412266 -0.385868
2.765000 68.175933 -65.092091 -0.000000 0.136930 0.251159 -0.148132 -7.644552 768.349871 -0.000000 0.412293 0.405786 -0.385848
2.770000 59.937124 -77.221855 -0.000000 0.134849 0.257386 -0.148281 -15.408353 781.976767 -0.000000 0.415289 0.399216 -0.385885
2.775000 51.611403 -88.863005 -0.000000 0.133394 0.263701 -0.148227 -23.263108 794.928913 -0.000000 0.418023 0.392621 -0.385902
2.780000 43.238738 -99.530680 -0.000000 0.131947 0.270130 -0.148380 -29.656102 807.493705 -0.000000 0.420473 0.385822 -0.385817
2.785000 35.067039 -108.734633 -0.000000 0.130755 0.276610 -0.148462 -34.795605 819.891699 -0.000000 0.422738 0.378931 -0.385821
2.790000 27.329946 -116.170107 -0.000000 0.129849 0.283183 -0.148236 -38.560190 832.250845 -0.000000 0.424742 0.372001 -0.385726
2.795000 20.223233 -121.699111 -0.000000 0.129150 0.289808 -0.148313 -40.685589 844.615322 -0.000000 0.426436 0.364958 -0.385599
2.800000 13.972921 -125.322853 -0.000000 0.128691 0.296451 -0.148432 -41.456671 856.981400 -0.000000 0.427907 0.357918 -0.385348
2.805000 8.592710 -127.186841 -0.000000 0.128456 0.303214 -0.148559 -40.178199 869.428721 -0.000000 0.429239 0.350715 -0.384832
2.810000 4.238685 -127.498925 -0.000000 0.128483 0.310033 -0.148611 -37.656389 882.013640 -0.000000 0.430141 0.343475 -0.384920
2.815000 0.868689 -126.527967 -0.000000 0.128947 0.316925 -0.148706 -33.869697 894.855873 -0.000000 0.430822 0.336156 -0.384982
2.820000 -1.522559 -124.547028 -0.000000 0.129437 0.323787 -0.148707 -29.598929 908.058382 -0.000000 0.431120 0.328855 -0.385165
2.825000 -3.188895 -121.806385 -0.000000 0.130235 0.330909 -0.148724 -24.253223 921.830655 -0.000000 0.431035 0.321538 -0.384696
2.830000 -4.140690 -118.537898 -0.000000 0.131332 0.337834 -0.148741 -19.256479 936.420254 -0.000000 0.430721 0.314138 -0.384554
2.835000 -4.559725 -114.970385 -0.000000 0.132664 0.344685 -0.148686 -14.922616 952.176500 -0.000000 0.430068 0.306784 -0.384634
2.840000 -4.718928 -111.336644 -0.000000 0.134229 0.351493 -0.148745 -10.839646 969.419632 -0.000000 0.429321 0.299294 -0.384525
2.845000 -4.791750 -107.869292 -0.000000 0.135288 0.358512 -0.149389 -7.411141 988.365215 -0.000000 0.428294 0.291882 -0.384338
2.850000 -5.033159 -104.773352 -0.000000 0.137407 0.365536 -0.149428 -4.229688 1009.172928 -0.000000 0.427049 0.284487 -0.384030
2.855000 -5.533741 -102.230709 -0.000000 0.139801 0.372485 -0.149429 -2.155967 1031.976530 -0.000000 0.425459 0.277214 -0.383867
2.860000 -6.478498 -100.394817 -0.000000 0.142387 0.379417 -0.149472 -0.875249 1056.898363 -0.000000 0.423571 0.270002 -0.383794
2.865000 -8.006887 -99.396903 -0.000000 0.145150 0.386357 -0.149715 -0.326073 1083.967910 -0.000000 0.421500 0.262837 -0.383652
2.870000 -10.316126 -99.321681 -0.000000 0.148341 0.393340 -0.149761 0.297320 1113.040339 -0.000000 0.419128 0.255701 -0.383469
2.875000 -13.374395 -100.205390 -0.000000 0.151673 0.400064 -0.149883 -0.507144 1143.798177 -0.000000 0.416487 0.248696 -0.383289
2.880000 -17.408045 -101.948428 -0.000000 0.155497 0.406848 -0.149938 -0.744994 1175.821165 -0.000000 0.413550 0.241840 -0.383096
2.885000 -22.241795 -104.378318 -0.000000 0.159223 0.413522 -0.149945 -1.979786 1208.612830 -0.000000 0.410433 0.235151 -0.382865
2.890000 -27.916778 -107.178267 -0.000000 0.163235 0.420196 -0.150121 -2.093733 1241.567068 -0.000000 0.406999 0.228551 -0.382617
2.895000 -34.143651 -110.039020 -0.000000 0.167640 0.426564 -0.150143 -1.696886 1273.905823 -0.000000 0.403354 0.222101 -0.382394
2.900000 -40.710519 -112.622611 -0.000000 0.172245 0.432997 -0.150241 0.251703 1304.655850 -0.000000 0.399465 0.215885 -0.382050
2.905000 -47.240106 -114.664710 -0.000000 0.177026 0.439164 -0.150452 3.070510 1332.692686 -0.000000 0.395277 0.209963 -0.381839
2.910000 -53.577234 -115.859676 -0.000000 0.182006 0.445308 -0.150544 8.297484 1356.824351 -0.000000 0.390819 0.204186 -0.381743
2.915000 -59.399632 -116.035354 -0.000000 0.187142 0.451109 -0.150806 14.889486 1375.819050 -0.000000 0.386134 0.198617 -0.381638
2.920000 -64.619334 -115.005905 -0.000000 0.192659 0.456698 -0.151004 23.818989 1388.367558 -0.000000 0.381213 0.193405 -0.381416
2.925000 -69.065729 -112.738169 -0.000000 0.198191 0.462127 -0.151299 34.318429 1393.170166 -0.000000 0.376126 0.188362 -0.381210
2.930000 -72.700973 -109.248371 -0.000000 0.204041 0.467174 -0.151566 46.446173 1389.036983 -0.000000 0.370816 0.183732 -0.380968
2.935000 -75.500867 -104.657832 -0.000000 0.209985 0.472041 -0.151880 59.757339 1375.035713 -0.000000 0.365351 0.179399 -0.380805
2.940000 -77.858353 -98.866708 -0.000000 0.217143 0.476575 -0.151653 78.957463 1350.283628 -0.000000 0.359653 0.174795 -0.380603
2.945000 -79.077216 -92.697113 -0.000000 0.223377 0.480721 -0.152220 93.613682 1315.056216 -0.000000 0.353807 0.170927 -0.380508
2.950000 -79.721038 -86.092175 -0.000000 0.229874 0.484951 -0.152481 109.386439 1269.218555 -0.000000 0.347698 0.167399 -0.380398
2.955000 -79.716622 -79.533196 -0.000000 0.236151 0.488151 -0.152795 122.152944 1213.773516 -0.000000 0.341433 0.164185 -0.380378
2.960000 -79.543083 -72.925893 -0.000000 0.242973 0.491747 -0.152930 135.494178 1149.548318 -0.000000 0.335071 0.161331 -0.380333
2.965000 -79.178414 -66.553626 -0.000000 0.249772 0.494481 -0.153131 145.585542 1078.504588 -0.000000 0.328636 0.158817 -0.380318
